# xmcd
#
# Track frame offsets:
#	150
#	14209
#	31896
#	47837
#	60949
#	79541
#	97211
#	122250
#	141913
#	162880
#	185787
#	200938
#	224397
#	240934
#	261036
#
# Disc length: 3719 seconds
#
# Revision: 0
# Processed by: cddbd v1.4PL0 Copyright (c) Steve Scherf et al.
# Submitted via: dBpowerAMP V4.0
#
DISCID=d40e850f
DTITLE=Paul Gross and David Keeley - Give The Dog A Bone
DYEAR=2001
DGENRE=Country
TTITLE0=Give The Dog A Bone
TTITLE1=Cherry Beach
TTITLE2=No Business
TTITLE3=If Heaven Had A Back Door
TTITLE4=Secret In Your Eyes
TTITLE5=Family Matters
TTITLE6=Other Side of Life
TTITLE7=Jerusalem
TTITLE8=Gone With The Wind
TTITLE9=Crime Of The Mind
TTITLE10=Kickin' His Shadow
TTITLE11=Paris
TTITLE12=Blame It All On Nashville
TTITLE13=Clouds
TTITLE14=Holy Love
EXTD=
EXTT0=
EXTT1=
EXTT2=
EXTT3=
EXTT4=
EXTT5=
EXTT6=
EXTT7=
EXTT8=
EXTT9=
EXTT10=
EXTT11=
EXTT12=
EXTT13=
EXTT14=
PLAYORDER=
